<svg width="30" height="31" viewBox="0 0 30 31" fill="none" xmlns="http://www.w3.org/2000/svg">
<path d="M15 30.5C12.9434 30.5 11.0026 30.1058 9.17763 29.3174C7.35263 28.5289 5.76105 27.4555 4.40289 26.0971C3.04447 24.7389 1.97105 23.1474 1.18263 21.3224C0.394211 19.4974 0 17.5566 0 15.5C0 13.4271 0.394211 11.4822 1.18263 9.66539C1.97105 7.84855 3.04447 6.26105 4.40289 4.90289C5.76105 3.54447 7.35263 2.47105 9.17763 1.68263C11.0026 0.894211 12.9434 0.5 15 0.5C17.0729 0.5 19.0178 0.894211 20.8346 1.68263C22.6514 2.47105 24.2389 3.54447 25.5971 4.90289C26.9555 6.26105 28.0289 7.84855 28.8174 9.66539C29.6058 11.4822 30 13.4271 30 15.5C30 17.5566 29.6058 19.4974 28.8174 21.3224C28.0289 23.1474 26.9555 24.7389 25.5971 26.0971C24.2389 27.4555 22.6514 28.5289 20.8346 29.3174C19.0178 30.1058 17.0729 30.5 15 30.5ZM15 28.098C15.8058 27.0293 16.4839 25.9514 17.0345 24.8643C17.585 23.7772 18.0334 22.589 18.3797 21.2995H11.6203C11.9868 22.6295 12.4404 23.838 12.9809 24.9251C13.5212 26.0122 14.1942 27.0699 15 28.098ZM11.9424 27.6638C11.3371 26.7954 10.7936 25.8082 10.3117 24.7021C9.82987 23.5958 9.45539 22.4616 9.18829 21.2995H3.83211C4.66605 22.9392 5.78447 24.3168 7.18737 25.4324C8.59026 26.5476 10.1753 27.2914 11.9424 27.6638ZM18.0576 27.6638C19.8247 27.2914 21.4097 26.5476 22.8126 25.4324C24.2155 24.3168 25.3339 22.9392 26.1679 21.2995H20.8117C20.4938 22.4716 20.0939 23.6108 19.6121 24.7171C19.1305 25.8234 18.6124 26.8057 18.0576 27.6638ZM2.83895 18.9311H8.70868C8.60947 18.3442 8.5375 17.7688 8.49276 17.2049C8.44829 16.6412 8.42605 16.0729 8.42605 15.5C8.42605 14.9271 8.44829 14.3588 8.49276 13.7951C8.5375 13.2312 8.60947 12.6558 8.70868 12.0689H2.83895C2.68711 12.6053 2.57079 13.1629 2.49 13.7418C2.40895 14.3208 2.36842 14.9068 2.36842 15.5C2.36842 16.0932 2.40895 16.6792 2.49 17.2582C2.57079 17.8371 2.68711 18.3947 2.83895 18.9311ZM11.0767 18.9311H18.9233C19.0222 18.3442 19.0941 17.7739 19.1388 17.2203C19.1833 16.6666 19.2055 16.0932 19.2055 15.5C19.2055 14.9068 19.1833 14.3334 19.1388 13.7797C19.0941 13.2261 19.0222 12.6558 18.9233 12.0689H11.0767C10.9778 12.6558 10.9059 13.2261 10.8612 13.7797C10.8167 14.3334 10.7945 14.9068 10.7945 15.5C10.7945 16.0932 10.8167 16.6666 10.8612 17.2203C10.9059 17.7739 10.9778 18.3442 11.0767 18.9311ZM21.2913 18.9311H27.1611C27.3129 18.3947 27.4292 17.8371 27.51 17.2582C27.5911 16.6792 27.6316 16.0932 27.6316 15.5C27.6316 14.9068 27.5911 14.3208 27.51 13.7418C27.4292 13.1629 27.3129 12.6053 27.1611 12.0689H21.2913C21.3905 12.6558 21.4625 13.2312 21.5072 13.7951C21.5517 14.3588 21.5739 14.9271 21.5739 15.5C21.5739 16.0729 21.5517 16.6412 21.5072 17.2049C21.4625 17.7688 21.3905 18.3442 21.2913 18.9311ZM20.8117 9.70053H26.1679C25.3239 8.04053 24.2132 6.6629 22.8355 5.56763C21.4579 4.47263 19.8653 3.72369 18.0576 3.32079C18.6629 4.23974 19.2013 5.24487 19.6729 6.33618C20.1447 7.42724 20.5243 8.54869 20.8117 9.70053ZM11.6203 9.70053H18.3797C18.0132 8.38053 17.5521 7.16434 16.9966 6.05197C16.4408 4.93961 15.7753 3.8896 15 2.90197C14.2247 3.8896 13.5592 4.93961 13.0034 6.05197C12.4479 7.16434 11.9868 8.38053 11.6203 9.70053ZM3.83211 9.70053H9.18829C9.47566 8.54869 9.85526 7.42724 10.3271 6.33618C10.7987 5.24487 11.3371 4.23974 11.9424 3.32079C10.1245 3.72369 8.52934 4.47526 7.15697 5.57553C5.78434 6.67553 4.67605 8.05053 3.83211 9.70053Z" fill="white"/>
</svg>
