<svg width="30" height="30" viewBox="0 0 30 30" fill="none" xmlns="http://www.w3.org/2000/svg">
<path d="M15 30C12.9434 30 11.0026 29.6058 9.17763 28.8174C7.35263 28.0289 5.76105 26.9555 4.40289 25.5971C3.04447 24.2389 1.97105 22.6474 1.18263 20.8224C0.394211 18.9974 0 17.0566 0 15C0 12.9271 0.394211 10.9822 1.18263 9.16539C1.97105 7.34855 3.04447 5.76105 4.40289 4.40289C5.76105 3.04447 7.35263 1.97105 9.17763 1.18263C11.0026 0.394211 12.9434 0 15 0C17.0729 0 19.0178 0.394211 20.8346 1.18263C22.6514 1.97105 24.2389 3.04447 25.5971 4.40289C26.9555 5.76105 28.0289 7.34855 28.8174 9.16539C29.6058 10.9822 30 12.9271 30 15C30 17.0566 29.6058 18.9974 28.8174 20.8224C28.0289 22.6474 26.9555 24.2389 25.5971 25.5971C24.2389 26.9555 22.6514 28.0289 20.8346 28.8174C19.0178 29.6058 17.0729 30 15 30ZM15 27.598C15.8058 26.5293 16.4839 25.4514 17.0345 24.3643C17.585 23.2772 18.0334 22.089 18.3797 20.7995H11.6203C11.9868 22.1295 12.4404 23.338 12.9809 24.4251C13.5212 25.5122 14.1942 26.5699 15 27.598ZM11.9424 27.1638C11.3371 26.2954 10.7936 25.3082 10.3117 24.2021C9.82987 23.0958 9.45539 21.9616 9.18829 20.7995H3.83211C4.66605 22.4392 5.78447 23.8168 7.18737 24.9324C8.59026 26.0476 10.1753 26.7914 11.9424 27.1638ZM18.0576 27.1638C19.8247 26.7914 21.4097 26.0476 22.8126 24.9324C24.2155 23.8168 25.3339 22.4392 26.1679 20.7995H20.8117C20.4938 21.9716 20.0939 23.1108 19.6121 24.2171C19.1305 25.3234 18.6124 26.3057 18.0576 27.1638ZM2.83895 18.4311H8.70868C8.60947 17.8442 8.5375 17.2688 8.49276 16.7049C8.44829 16.1412 8.42605 15.5729 8.42605 15C8.42605 14.4271 8.44829 13.8588 8.49276 13.2951C8.5375 12.7312 8.60947 12.1558 8.70868 11.5689H2.83895C2.68711 12.1053 2.57079 12.6629 2.49 13.2418C2.40895 13.8208 2.36842 14.4068 2.36842 15C2.36842 15.5932 2.40895 16.1792 2.49 16.7582C2.57079 17.3371 2.68711 17.8947 2.83895 18.4311ZM11.0767 18.4311H18.9233C19.0222 17.8442 19.0941 17.2739 19.1388 16.7203C19.1833 16.1666 19.2055 15.5932 19.2055 15C19.2055 14.4068 19.1833 13.8334 19.1388 13.2797C19.0941 12.7261 19.0222 12.1558 18.9233 11.5689H11.0767C10.9778 12.1558 10.9059 12.7261 10.8612 13.2797C10.8167 13.8334 10.7945 14.4068 10.7945 15C10.7945 15.5932 10.8167 16.1666 10.8612 16.7203C10.9059 17.2739 10.9778 17.8442 11.0767 18.4311ZM21.2913 18.4311H27.1611C27.3129 17.8947 27.4292 17.3371 27.51 16.7582C27.5911 16.1792 27.6316 15.5932 27.6316 15C27.6316 14.4068 27.5911 13.8208 27.51 13.2418C27.4292 12.6629 27.3129 12.1053 27.1611 11.5689H21.2913C21.3905 12.1558 21.4625 12.7312 21.5072 13.2951C21.5517 13.8588 21.5739 14.4271 21.5739 15C21.5739 15.5729 21.5517 16.1412 21.5072 16.7049C21.4625 17.2688 21.3905 17.8442 21.2913 18.4311ZM20.8117 9.20053H26.1679C25.3239 7.54053 24.2132 6.1629 22.8355 5.06763C21.4579 3.97263 19.8653 3.22369 18.0576 2.82079C18.6629 3.73974 19.2013 4.74487 19.6729 5.83618C20.1447 6.92724 20.5243 8.04869 20.8117 9.20053ZM11.6203 9.20053H18.3797C18.0132 7.88053 17.5521 6.66434 16.9966 5.55197C16.4408 4.43961 15.7753 3.3896 15 2.40197C14.2247 3.3896 13.5592 4.43961 13.0034 5.55197C12.4479 6.66434 11.9868 7.88053 11.6203 9.20053ZM3.83211 9.20053H9.18829C9.47566 8.04869 9.85526 6.92724 10.3271 5.83618C10.7987 4.74487 11.3371 3.73974 11.9424 2.82079C10.1245 3.22369 8.52934 3.97526 7.15697 5.07553C5.78434 6.17553 4.67605 7.55053 3.83211 9.20053Z" fill="black"/>
</svg>
